<svg width="58" height="58" viewBox="0 0 58 58" fill="none" xmlns="http://www.w3.org/2000/svg">
<g filter="url(#filter0_d_281_305)">
<path d="M33.7336 18.6617H23.6617V28.7335H33.7336V18.6617Z" fill="url(#paint0_linear_281_305)"/>
<path d="M16.1078 32.5105C16.1078 34.5878 17.8074 36.2875 19.8847 36.2875C21.9621 36.2875 23.6617 34.5878 23.6617 32.5105V28.7336H19.8847C17.8074 28.7336 16.1078 30.4332 16.1078 32.5105Z" fill="url(#paint1_linear_281_305)"/>
<path d="M19.8847 11.1078C17.8074 11.1078 16.1078 12.8074 16.1078 14.8847C16.1078 16.9621 17.8074 18.6617 19.8847 18.6617H23.6617V14.8847C23.6617 12.8074 21.9621 11.1078 19.8847 11.1078Z" fill="url(#paint2_linear_281_305)"/>
<path d="M41.2874 14.8847C41.2874 12.8074 39.5878 11.1078 37.5105 11.1078C35.4331 11.1078 33.7335 12.8074 33.7335 14.8847V18.6617H37.5105C39.5878 18.6617 41.2874 16.9621 41.2874 14.8847Z" fill="url(#paint3_linear_281_305)"/>
<path d="M37.5105 28.7336H33.7335V32.5105C33.7335 34.5878 35.4331 36.2875 37.5105 36.2875C39.5878 36.2875 41.2874 34.5878 41.2874 32.5105C41.2874 30.4332 39.5878 28.7336 37.5105 28.7336Z" fill="url(#paint4_linear_281_305)"/>
</g>
<defs>
<filter id="filter0_d_281_305" x="0.107788" y="0.107788" width="57.1796" height="57.1797" filterUnits="userSpaceOnUse" color-interpolation-filters="sRGB">
<feFlood flood-opacity="0" result="BackgroundImageFix"/>
<feColorMatrix in="SourceAlpha" type="matrix" values="0 0 0 0 0 0 0 0 0 0 0 0 0 0 0 0 0 0 127 0" result="hardAlpha"/>
<feOffset dy="5"/>
<feGaussianBlur stdDeviation="8"/>
<feComposite in2="hardAlpha" operator="out"/>
<feColorMatrix type="matrix" values="0 0 0 0 0.368627 0 0 0 0 0.835294 0 0 0 0 0.658824 0 0 0 0.25 0"/>
<feBlend mode="normal" in2="BackgroundImageFix" result="effect1_dropShadow_281_305"/>
<feBlend mode="normal" in="SourceGraphic" in2="effect1_dropShadow_281_305" result="shape"/>
</filter>
<linearGradient id="paint0_linear_281_305" x1="33.7336" y1="18.6617" x2="22.4302" y2="20.7117" gradientUnits="userSpaceOnUse">
<stop stop-color="#D9A51E"/>
<stop offset="0.517901" stop-color="#F3EEB3"/>
<stop offset="1" stop-color="#D4951A"/>
</linearGradient>
<linearGradient id="paint1_linear_281_305" x1="23.6617" y1="28.7336" x2="15.1841" y2="30.2711" gradientUnits="userSpaceOnUse">
<stop stop-color="#D9A51E"/>
<stop offset="0.517901" stop-color="#F3EEB3"/>
<stop offset="1" stop-color="#D4951A"/>
</linearGradient>
<linearGradient id="paint2_linear_281_305" x1="23.6617" y1="11.1078" x2="15.1841" y2="12.6453" gradientUnits="userSpaceOnUse">
<stop stop-color="#D9A51E"/>
<stop offset="0.517901" stop-color="#F3EEB3"/>
<stop offset="1" stop-color="#D4951A"/>
</linearGradient>
<linearGradient id="paint3_linear_281_305" x1="41.2874" y1="11.1078" x2="32.8098" y2="12.6453" gradientUnits="userSpaceOnUse">
<stop stop-color="#D9A51E"/>
<stop offset="0.517901" stop-color="#F3EEB3"/>
<stop offset="1" stop-color="#D4951A"/>
</linearGradient>
<linearGradient id="paint4_linear_281_305" x1="41.2874" y1="28.7336" x2="32.8098" y2="30.2711" gradientUnits="userSpaceOnUse">
<stop stop-color="#D9A51E"/>
<stop offset="0.517901" stop-color="#F3EEB3"/>
<stop offset="1" stop-color="#D4951A"/>
</linearGradient>
</defs>
</svg>
