<svg width="64" height="72" viewBox="0 0 64 72" fill="none" xmlns="http://www.w3.org/2000/svg">
<path d="M9.408 54.696V63H8.316V56.808L5.556 63H4.788L2.016 56.796V63H0.924V54.696H2.1L5.172 61.56L8.244 54.696H9.408ZM17.2407 56.424L13.2807 66.096H12.1527L13.4487 62.928L10.7967 56.424H12.0087L14.0727 61.752L16.1127 56.424H17.2407ZM25.9633 63.084C25.1873 63.084 24.4793 62.904 23.8393 62.544C23.1993 62.176 22.6913 61.668 22.3153 61.02C21.9473 60.364 21.7633 59.628 21.7633 58.812C21.7633 57.996 21.9473 57.264 22.3153 56.616C22.6913 55.96 23.1993 55.452 23.8393 55.092C24.4793 54.724 25.1873 54.54 25.9633 54.54C26.7473 54.54 27.4593 54.724 28.0993 55.092C28.7393 55.452 29.2433 55.956 29.6113 56.604C29.9793 57.252 30.1633 57.988 30.1633 58.812C30.1633 59.636 29.9793 60.372 29.6113 61.02C29.2433 61.668 28.7393 62.176 28.0993 62.544C27.4593 62.904 26.7473 63.084 25.9633 63.084ZM25.9633 62.136C26.5473 62.136 27.0713 62 27.5353 61.728C28.0073 61.456 28.3753 61.068 28.6393 60.564C28.9113 60.06 29.0473 59.476 29.0473 58.812C29.0473 58.14 28.9113 57.556 28.6393 57.06C28.3753 56.556 28.0113 56.168 27.5473 55.896C27.0833 55.624 26.5553 55.488 25.9633 55.488C25.3713 55.488 24.8433 55.624 24.3793 55.896C23.9153 56.168 23.5473 56.556 23.2753 57.06C23.0113 57.556 22.8793 58.14 22.8793 58.812C22.8793 59.476 23.0113 60.06 23.2753 60.564C23.5473 61.068 23.9153 61.456 24.3793 61.728C24.8513 62 25.3793 62.136 25.9633 62.136ZM33.0137 57.492C33.2057 57.116 33.4777 56.824 33.8297 56.616C34.1897 56.408 34.6257 56.304 35.1377 56.304V57.432H34.8497C33.6257 57.432 33.0137 58.096 33.0137 59.424V63H31.9217V56.424H33.0137V57.492ZM36.307 59.688C36.307 59.016 36.443 58.428 36.715 57.924C36.987 57.412 37.359 57.016 37.831 56.736C38.311 56.456 38.847 56.316 39.439 56.316C39.951 56.316 40.427 56.436 40.867 56.676C41.307 56.908 41.643 57.216 41.875 57.6V54.12H42.979V63H41.875V61.764C41.659 62.156 41.339 62.48 40.915 62.736C40.491 62.984 39.995 63.108 39.427 63.108C38.843 63.108 38.311 62.964 37.831 62.676C37.359 62.388 36.987 61.984 36.715 61.464C36.443 60.944 36.307 60.352 36.307 59.688ZM41.875 59.7C41.875 59.204 41.775 58.772 41.575 58.404C41.375 58.036 41.103 57.756 40.759 57.564C40.423 57.364 40.051 57.264 39.643 57.264C39.235 57.264 38.863 57.36 38.527 57.552C38.191 57.744 37.923 58.024 37.723 58.392C37.523 58.76 37.423 59.192 37.423 59.688C37.423 60.192 37.523 60.632 37.723 61.008C37.923 61.376 38.191 61.66 38.527 61.86C38.863 62.052 39.235 62.148 39.643 62.148C40.051 62.148 40.423 62.052 40.759 61.86C41.103 61.66 41.375 61.376 41.575 61.008C41.775 60.632 41.875 60.196 41.875 59.7ZM51.1412 59.46C51.1412 59.668 51.1292 59.888 51.1052 60.12H45.8492C45.8892 60.768 46.1092 61.276 46.5092 61.644C46.9172 62.004 47.4092 62.184 47.9852 62.184C48.4572 62.184 48.8492 62.076 49.1612 61.86C49.4812 61.636 49.7052 61.34 49.8332 60.972H51.0092C50.8332 61.604 50.4812 62.12 49.9532 62.52C49.4252 62.912 48.7692 63.108 47.9852 63.108C47.3612 63.108 46.8012 62.968 46.3052 62.688C45.8172 62.408 45.4332 62.012 45.1532 61.5C44.8732 60.98 44.7332 60.38 44.7332 59.7C44.7332 59.02 44.8692 58.424 45.1412 57.912C45.4132 57.4 45.7932 57.008 46.2812 56.736C46.7772 56.456 47.3452 56.316 47.9852 56.316C48.6092 56.316 49.1612 56.452 49.6412 56.724C50.1212 56.996 50.4892 57.372 50.7452 57.852C51.0092 58.324 51.1412 58.86 51.1412 59.46ZM50.0132 59.232C50.0132 58.816 49.9212 58.46 49.7372 58.164C49.5532 57.86 49.3012 57.632 48.9812 57.48C48.6692 57.32 48.3212 57.24 47.9372 57.24C47.3852 57.24 46.9132 57.416 46.5212 57.768C46.1372 58.12 45.9172 58.608 45.8612 59.232H50.0132ZM53.9914 57.492C54.1834 57.116 54.4554 56.824 54.8074 56.616C55.1674 56.408 55.6034 56.304 56.1154 56.304V57.432H55.8274C54.6034 57.432 53.9914 58.096 53.9914 59.424V63H52.8994V56.424H53.9914V57.492ZM60.0208 63.108C59.5168 63.108 59.0648 63.024 58.6648 62.856C58.2648 62.68 57.9488 62.44 57.7168 62.136C57.4848 61.824 57.3568 61.468 57.3328 61.068H58.4608C58.4928 61.396 58.6448 61.664 58.9168 61.872C59.1968 62.08 59.5608 62.184 60.0088 62.184C60.4248 62.184 60.7528 62.092 60.9928 61.908C61.2328 61.724 61.3528 61.492 61.3528 61.212C61.3528 60.924 61.2248 60.712 60.9688 60.576C60.7128 60.432 60.3168 60.292 59.7808 60.156C59.2928 60.028 58.8928 59.9 58.5808 59.772C58.2768 59.636 58.0128 59.44 57.7888 59.184C57.5728 58.92 57.4648 58.576 57.4648 58.152C57.4648 57.816 57.5648 57.508 57.7648 57.228C57.9648 56.948 58.2488 56.728 58.6168 56.568C58.9848 56.4 59.4048 56.316 59.8768 56.316C60.6048 56.316 61.1928 56.5 61.6408 56.868C62.0888 57.236 62.3288 57.74 62.3608 58.38H61.2688C61.2448 58.036 61.1048 57.76 60.8488 57.552C60.6008 57.344 60.2648 57.24 59.8408 57.24C59.4488 57.24 59.1368 57.324 58.9048 57.492C58.6728 57.66 58.5568 57.88 58.5568 58.152C58.5568 58.368 58.6248 58.548 58.7608 58.692C58.9048 58.828 59.0808 58.94 59.2888 59.028C59.5048 59.108 59.8008 59.2 60.1768 59.304C60.6488 59.432 61.0328 59.56 61.3288 59.688C61.6248 59.808 61.8768 59.992 62.0848 60.24C62.3008 60.488 62.4128 60.812 62.4208 61.212C62.4208 61.572 62.3208 61.896 62.1208 62.184C61.9208 62.472 61.6368 62.7 61.2688 62.868C60.9088 63.028 60.4928 63.108 60.0208 63.108Z" fill="white"/>
<g filter="url(#filter0_d_110_2015)">
<path d="M28.8973 36.2494H36.0562C42.022 36.2494 44.4083 33.8631 44.4083 27.8973V20.7384C44.4083 14.7726 42.022 12.3863 36.0562 12.3863H28.8973C22.9315 12.3863 20.5452 14.7726 20.5452 20.7384V27.8973C20.5452 33.8631 22.9315 36.2494 28.8973 36.2494Z" stroke="url(#paint0_linear_110_2015)" stroke-width="1.5" stroke-linecap="round" stroke-linejoin="round" shape-rendering="crispEdges"/>
</g>
<path d="M27.7042 32.6699H37.2494C39.6357 32.6699 40.8288 31.4768 40.8288 29.0904V19.5452C40.8288 17.1589 39.6357 15.9658 37.2494 15.9658H27.7042C25.3178 15.9658 24.1247 17.1589 24.1247 19.5452V29.0904C24.1247 31.4768 25.3178 32.6699 27.7042 32.6699Z" fill="url(#paint1_linear_110_2015)" stroke="url(#paint2_linear_110_2015)" stroke-width="1.5" stroke-linecap="round" stroke-linejoin="round"/>
<path d="M24.1247 21.335H27.0837C28.7303 21.335 30.0666 22.6713 30.0666 24.3178C30.0666 25.9644 28.7303 27.3007 27.0837 27.3007H24.1247" stroke="black" stroke-width="2" stroke-linecap="round" stroke-linejoin="round"/>
<g filter="url(#filter1_d_110_2015)">
<path d="M40.8288 21.9196H37.2494" stroke="black" stroke-width="2" stroke-linecap="round" stroke-linejoin="round"/>
</g>
<g filter="url(#filter2_d_110_2015)">
<path d="M40.8288 26.7042H37.2494" stroke="black" stroke-width="2" stroke-linecap="round" stroke-linejoin="round"/>
</g>
<path d="M26.75 24.3179H26.8693" stroke="black" stroke-width="2" stroke-miterlimit="10" stroke-linecap="round" stroke-linejoin="round"/>
<defs>
<filter id="filter0_d_110_2015" x="3.79523" y="0.636292" width="57.3631" height="57.3631" filterUnits="userSpaceOnUse" color-interpolation-filters="sRGB">
<feFlood flood-opacity="0" result="BackgroundImageFix"/>
<feColorMatrix in="SourceAlpha" type="matrix" values="0 0 0 0 0 0 0 0 0 0 0 0 0 0 0 0 0 0 127 0" result="hardAlpha"/>
<feOffset dy="5"/>
<feGaussianBlur stdDeviation="8"/>
<feComposite in2="hardAlpha" operator="out"/>
<feColorMatrix type="matrix" values="0 0 0 0 0.368627 0 0 0 0 0.835294 0 0 0 0 0.658824 0 0 0 0.25 0"/>
<feBlend mode="normal" in2="BackgroundImageFix" result="effect1_dropShadow_110_2015"/>
<feBlend mode="normal" in="SourceGraphic" in2="effect1_dropShadow_110_2015" result="shape"/>
</filter>
<filter id="filter1_d_110_2015" x="20.2494" y="9.91956" width="37.5795" height="34" filterUnits="userSpaceOnUse" color-interpolation-filters="sRGB">
<feFlood flood-opacity="0" result="BackgroundImageFix"/>
<feColorMatrix in="SourceAlpha" type="matrix" values="0 0 0 0 0 0 0 0 0 0 0 0 0 0 0 0 0 0 127 0" result="hardAlpha"/>
<feOffset dy="5"/>
<feGaussianBlur stdDeviation="8"/>
<feComposite in2="hardAlpha" operator="out"/>
<feColorMatrix type="matrix" values="0 0 0 0 0.368627 0 0 0 0 0.835294 0 0 0 0 0.658824 0 0 0 0.25 0"/>
<feBlend mode="normal" in2="BackgroundImageFix" result="effect1_dropShadow_110_2015"/>
<feBlend mode="normal" in="SourceGraphic" in2="effect1_dropShadow_110_2015" result="shape"/>
</filter>
<filter id="filter2_d_110_2015" x="20.2494" y="14.7042" width="37.5795" height="34" filterUnits="userSpaceOnUse" color-interpolation-filters="sRGB">
<feFlood flood-opacity="0" result="BackgroundImageFix"/>
<feColorMatrix in="SourceAlpha" type="matrix" values="0 0 0 0 0 0 0 0 0 0 0 0 0 0 0 0 0 0 127 0" result="hardAlpha"/>
<feOffset dy="5"/>
<feGaussianBlur stdDeviation="8"/>
<feComposite in2="hardAlpha" operator="out"/>
<feColorMatrix type="matrix" values="0 0 0 0 0.368627 0 0 0 0 0.835294 0 0 0 0 0.658824 0 0 0 0.25 0"/>
<feBlend mode="normal" in2="BackgroundImageFix" result="effect1_dropShadow_110_2015"/>
<feBlend mode="normal" in="SourceGraphic" in2="effect1_dropShadow_110_2015" result="shape"/>
</filter>
<linearGradient id="paint0_linear_110_2015" x1="44.4083" y1="12.3863" x2="17.6273" y2="17.2433" gradientUnits="userSpaceOnUse">
<stop stop-color="#D9A51E"/>
<stop offset="0.517901" stop-color="#F3EEB3"/>
<stop offset="1" stop-color="#D4951A"/>
</linearGradient>
<linearGradient id="paint1_linear_110_2015" x1="40.8288" y1="15.9658" x2="22.0821" y2="19.3657" gradientUnits="userSpaceOnUse">
<stop stop-color="#D9A51E"/>
<stop offset="0.517901" stop-color="#F3EEB3"/>
<stop offset="1" stop-color="#D4951A"/>
</linearGradient>
<linearGradient id="paint2_linear_110_2015" x1="40.8288" y1="15.9658" x2="22.0821" y2="19.3657" gradientUnits="userSpaceOnUse">
<stop stop-color="#D9A51E"/>
<stop offset="0.517901" stop-color="#F3EEB3"/>
<stop offset="1" stop-color="#D4951A"/>
</linearGradient>
</defs>
</svg>
