<svg width="57" height="58" viewBox="0 0 57 58" fill="none" xmlns="http://www.w3.org/2000/svg">
<g filter="url(#filter0_d_281_313)">
<path d="M28.6221 11.3722L25.588 18.4351H22.5538C22.0502 18.4351 21.5592 18.4729 21.0808 18.5736L22.3398 15.552L22.3902 15.4387L22.4657 15.2373C22.5035 15.1492 22.5286 15.0736 22.5664 15.0107C24.0268 11.624 25.6635 10.5665 28.6221 11.3722Z" fill="url(#paint0_linear_281_313)"/>
<path d="M37.1706 18.775L37.1454 18.7624C36.39 18.5484 35.6221 18.4351 34.8415 18.4351H26.9603L29.793 11.8506L29.8307 11.7625C30.007 11.8254 30.1959 11.9135 30.3847 11.9765L33.1671 13.1473C34.7156 13.7894 35.7983 14.4567 36.4656 15.2624C36.5789 15.4135 36.6796 15.552 36.7803 15.7157C36.8936 15.8919 36.9818 16.0682 37.0321 16.257C37.0825 16.3703 37.1203 16.471 37.1454 16.5844C37.3343 17.2264 37.3469 17.9566 37.1706 18.775Z" fill="url(#paint1_linear_281_313)"/>
<path d="M29.3523 30.8235H29.667C30.0447 30.8235 30.3595 30.4836 30.3595 30.0681C30.3595 29.5393 30.2084 29.4638 29.8811 29.3379L29.3523 29.149V30.8235Z" fill="url(#paint2_linear_281_313)"/>
<path d="M36.6166 20.5753C36.0501 20.4117 35.4584 20.3235 34.8415 20.3235H22.5538C21.6977 20.3235 20.892 20.4872 20.1366 20.8146C17.9459 21.7588 16.41 23.9368 16.41 26.4674V28.9224C16.41 29.2246 16.4352 29.5141 16.4729 29.8163C16.7499 33.8198 18.8902 35.9601 22.8937 36.2245C23.1833 36.2623 23.4729 36.2874 23.7876 36.2874H33.6077C38.2659 36.2874 40.7209 34.0716 40.9601 29.6652C40.9727 29.426 40.9853 29.1742 40.9853 28.9224V26.4674C40.9853 23.685 39.1346 21.3433 36.6166 20.5753ZM30.3091 28.1041C30.8883 28.3055 31.6688 28.7336 31.6688 30.0681C31.6688 31.2137 30.775 32.1328 29.6671 32.1328H29.3523V32.4098C29.3523 32.7749 29.0627 33.0645 28.6976 33.0645C28.3325 33.0645 28.043 32.7749 28.043 32.4098V32.1328H27.9297C26.721 32.1328 25.7264 31.113 25.7264 29.854C25.7264 29.4889 26.016 29.1994 26.3811 29.1994C26.7462 29.1994 27.0358 29.4889 27.0358 29.854C27.0358 30.3828 27.4387 30.8235 27.9297 30.8235H28.043V28.6958L27.0861 28.3559C26.507 28.1544 25.7264 27.7264 25.7264 26.3918C25.7264 25.2462 26.6203 24.3271 27.7282 24.3271H28.043V24.0501C28.043 23.685 28.3325 23.3955 28.6976 23.3955C29.0627 23.3955 29.3523 23.685 29.3523 24.0501V24.3271H29.4656C30.6742 24.3271 31.6688 25.3469 31.6688 26.6059C31.6688 26.971 31.3793 27.2605 31.0142 27.2605C30.6491 27.2605 30.3595 26.971 30.3595 26.6059C30.3595 26.0771 29.9566 25.6365 29.4656 25.6365H29.3523V27.7641L30.3091 28.1041Z" fill="url(#paint3_linear_281_313)"/>
<path d="M27.0358 26.3919C27.0358 26.9206 27.1868 26.9962 27.5142 27.1221L28.043 27.3109V25.6365H27.7282C27.3379 25.6365 27.0358 25.9764 27.0358 26.3919Z" fill="url(#paint4_linear_281_313)"/>
</g>
<defs>
<filter id="filter0_d_281_313" x="0.409973" y="0.115417" width="56.5753" height="57.1721" filterUnits="userSpaceOnUse" color-interpolation-filters="sRGB">
<feFlood flood-opacity="0" result="BackgroundImageFix"/>
<feColorMatrix in="SourceAlpha" type="matrix" values="0 0 0 0 0 0 0 0 0 0 0 0 0 0 0 0 0 0 127 0" result="hardAlpha"/>
<feOffset dy="5"/>
<feGaussianBlur stdDeviation="8"/>
<feComposite in2="hardAlpha" operator="out"/>
<feColorMatrix type="matrix" values="0 0 0 0 0.368627 0 0 0 0 0.835294 0 0 0 0 0.658824 0 0 0 0.25 0"/>
<feBlend mode="normal" in2="BackgroundImageFix" result="effect1_dropShadow_281_313"/>
<feBlend mode="normal" in="SourceGraphic" in2="effect1_dropShadow_281_313" result="shape"/>
</filter>
<linearGradient id="paint0_linear_281_313" x1="28.6221" y1="11.1154" x2="20.1647" y2="12.6663" gradientUnits="userSpaceOnUse">
<stop stop-color="#D9A51E"/>
<stop offset="0.517901" stop-color="#F3EEB3"/>
<stop offset="1" stop-color="#D4951A"/>
</linearGradient>
<linearGradient id="paint1_linear_281_313" x1="37.2953" y1="11.7625" x2="26.1138" y2="14.7511" gradientUnits="userSpaceOnUse">
<stop stop-color="#D9A51E"/>
<stop offset="0.517901" stop-color="#F3EEB3"/>
<stop offset="1" stop-color="#D4951A"/>
</linearGradient>
<linearGradient id="paint2_linear_281_313" x1="30.3595" y1="29.149" x2="29.2057" y2="29.2749" gradientUnits="userSpaceOnUse">
<stop stop-color="#D9A51E"/>
<stop offset="0.517901" stop-color="#F3EEB3"/>
<stop offset="1" stop-color="#D4951A"/>
</linearGradient>
<linearGradient id="paint3_linear_281_313" x1="40.9853" y1="20.3235" x2="14.5577" y2="27.7019" gradientUnits="userSpaceOnUse">
<stop stop-color="#D9A51E"/>
<stop offset="0.517901" stop-color="#F3EEB3"/>
<stop offset="1" stop-color="#D4951A"/>
</linearGradient>
<linearGradient id="paint4_linear_281_313" x1="28.043" y1="25.6365" x2="26.8892" y2="25.7623" gradientUnits="userSpaceOnUse">
<stop stop-color="#D9A51E"/>
<stop offset="0.517901" stop-color="#F3EEB3"/>
<stop offset="1" stop-color="#D4951A"/>
</linearGradient>
</defs>
</svg>
