<svg width="24" height="24" viewBox="0 0 24 24" fill="none" xmlns="http://www.w3.org/2000/svg">
<path d="M11 20.75C5.62 20.75 1.25 16.38 1.25 11C1.25 5.62 5.62 1.25 11 1.25C16.38 1.25 20.75 5.62 20.75 11C20.75 16.38 16.38 20.75 11 20.75ZM11 2.75C6.45 2.75 2.75 6.45 2.75 11C2.75 15.55 6.45 19.25 11 19.25C15.55 19.25 19.25 15.55 19.25 11C19.25 6.45 15.55 2.75 11 2.75Z" fill="url(#paint0_linear_281_69)"/>
<path d="M20.16 22.79C20.08 22.79 20 22.78 19.93 22.77C19.46 22.71 18.61 22.39 18.13 20.96C17.88 20.21 17.97 19.46 18.38 18.89C18.79 18.32 19.48 18 20.27 18C21.29 18 22.09 18.39 22.45 19.08C22.81 19.77 22.71 20.65 22.14 21.5C21.43 22.57 20.66 22.79 20.16 22.79ZM19.56 20.49C19.73 21.01 19.97 21.27 20.13 21.29C20.29 21.31 20.59 21.12 20.9 20.67C21.19 20.24 21.21 19.93 21.14 19.79C21.07 19.65 20.79 19.5 20.27 19.5C19.96 19.5 19.73 19.6 19.6 19.77C19.48 19.94 19.46 20.2 19.56 20.49Z" fill="url(#paint1_linear_281_69)"/>
<path opacity="0.1" d="M17.0622 7.49998C16.5254 6.57012 15.7818 5.77622 14.889 5.1797C13.9963 4.58317 12.9783 4.20002 11.9137 4.05987C10.8492 3.91972 9.7667 4.02634 8.74997 4.37147C7.73324 4.71661 6.80953 5.29101 6.0503 6.05024C5.29107 6.80947 4.71667 7.73317 4.37153 8.74991C4.0264 9.76664 3.91978 10.8491 4.05993 11.9137C4.20008 12.9782 4.58323 13.9962 5.17976 14.889C5.77628 15.7817 6.57018 16.5253 7.50004 17.0622L11 11L17.0622 7.49998Z" fill="url(#paint2_linear_281_69)"/>
<defs>
<linearGradient id="paint0_linear_281_69" x1="20.75" y1="1.25" x2="-1.13446" y2="5.21895" gradientUnits="userSpaceOnUse">
<stop stop-color="#D9A51E"/>
<stop offset="0.517901" stop-color="#F3EEB3"/>
<stop offset="1" stop-color="#D4951A"/>
</linearGradient>
<linearGradient id="paint1_linear_281_69" x1="22.6607" y1="18" x2="17.4118" y2="18.928" gradientUnits="userSpaceOnUse">
<stop stop-color="#D9A51E"/>
<stop offset="0.517901" stop-color="#F3EEB3"/>
<stop offset="1" stop-color="#D4951A"/>
</linearGradient>
<linearGradient id="paint2_linear_281_69" x1="13.5622" y1="1.43781" x2="1.38005" y2="11.7615" gradientUnits="userSpaceOnUse">
<stop stop-color="#D9A51E"/>
<stop offset="0.517901" stop-color="#F3EEB3"/>
<stop offset="1" stop-color="#D4951A"/>
</linearGradient>
</defs>
</svg>
